<svg preserveAspectRatio="none" width="100%" height="100%" overflow="visible" style="display: block;" viewBox="0 0 24 24" fill="none" xmlns="http://www.w3.org/2000/svg">
<g id="facebook">
<g id="BG 111" opacity="0.58">
</g>
<path id="Vector" d="M17.5762 8.62891L17.5361 6.24023H17.5371C17.5371 5.70215 17.1084 5.2736 16.5703 5.27344H16.5605L13.8604 5.31348H13.8584C11.8327 5.35009 10.2172 7.01145 10.2539 9.04199L10.2998 11.625L9.26855 11.6436C8.73575 11.6496 8.31348 12.076 8.31348 12.6104V12.6201L8.34375 14.5205V14.5195C8.34877 15.0531 8.77476 15.4763 9.30957 15.4766H9.32129L10.3555 15.459L10.4434 20.9902V20.9922C10.4466 21.1808 10.2956 21.3328 10.1104 21.333H7.80957C6.12238 21.3329 4.8559 20.8325 4.01172 19.9873C3.16747 19.1419 2.66699 17.8725 2.66699 16.1797V7.80957C2.66708 6.12236 3.16746 4.85598 4.01172 4.01172C4.85598 3.16746 6.12236 2.66708 7.80957 2.66699H16.1904C17.8776 2.66708 19.144 3.16746 19.9883 4.01172C20.8325 4.85598 21.3329 6.12236 21.333 7.80957V16.1904C21.3329 17.8776 20.8325 19.144 19.9883 19.9883C19.144 20.8325 17.8776 21.3329 16.1904 21.333H15C14.8182 21.333 14.667 21.1818 14.667 21V15.3936L16.2617 15.3662H16.2793L16.2979 15.3652C16.7236 15.3347 17.0971 15.0293 17.1914 14.5898L17.1943 14.5801L17.1953 14.5703L17.5459 12.6602L17.5479 12.6494C17.6453 12.0639 17.1925 11.5234 16.5898 11.5234H16.5811L14.6133 11.5508L14.582 9.63965L16.6211 9.60645L16.6201 9.60547C17.1535 9.60012 17.5771 9.17454 17.5771 8.63965L17.5762 8.62891Z" fill="var(--fill-0, #4456A6)" stroke="var(--stroke-0, #4456A6)" stroke-width="1.33333"/>
<path id="Vector_2" opacity="0" d="M23.333 0.666992V23.333H0.666992V0.666992H23.333Z" fill="var(--fill-0, #4456A6)" stroke="var(--stroke-0, #4456A6)" stroke-width="1.33333"/>
</g>
</svg>
